<svg width="640" height="350" viewBox="0 0 640 350" fill="none" xmlns="http://www.w3.org/2000/svg">
<path d="M327.971 348.012L636.742 238.185V253.578L371.433 348.012H327.971Z" fill="#AF99FF" fill-opacity="0.6"/>
<path d="M263.977 348.012L636.742 212.184V226.121L297.307 348.012H263.977Z" fill="#BFADFF" fill-opacity="0.5"/>
<path d="M0.17569 350V0.135107H5.50756V350H0.17569Z" fill="#C6EBBE"/>
<path d="M0.17569 345.9H640V350H0.17569V345.9Z" fill="#C6EBBE"/>
<path d="M634.668 347.95V0.000185197L639.825 0L640 347.95H634.668Z" fill="#C6EBBE"/>
<path d="M0.17569 0.135107L640 0.135098V4.23508H0.17569V0.135107Z" fill="#C6EBBE"/>
<path d="M640 350H598.079L629.78 342.349L639.985 318.683L640 350Z" fill="#0B0033"/>
<path d="M0.17569 350L0 320.617L9.77653 344.533L40.2645 350H0.17569Z" fill="#0B0033"/>
<path d="M639.825 0L639.827 31.4332L630.051 7.51699L598.948 0.00146952L639.825 0Z" fill="#0B0033"/>
<path d="M0.17569 0.135107L41.0534 0.135102L9.9508 7.65172L0.175684 31.5683L0.17569 0.135107Z" fill="#0B0033"/>
</svg>
